# xmcd CD database file
#
# Track frame offsets:
#	187
#	10052
#	20960
#	31320
#	39677
#	50315
#	60560
#	70842
#	80860
#
# Disc length: 1214 seconds
#
# Revision: 4
# Processed by: cddbd v1.5.1PL0 Copyright (c) Steve Scherf et al.
# Submitted via: CDex 1.51
#
DISCID=7504bc09
DTITLE=Fats Domino - When I'm Walking
DYEAR=1996
DGENRE=Blues
TTITLE0=When I'm Walking
TTITLE1=There Goes My Heart Again
TTITLE2=Just A Lonely Man
TTITLE3=Old Man Trouble
TTITLE4=Bye Baby, Bye Bye
TTITLE5=Forever, Forever
TTITLE6=Mary On Mary
TTITLE7=Can't Go On Without You
TTITLE8=Tell The Truth Baby
EXTD=
EXTT0=
EXTT1=
EXTT2=
EXTT3=
EXTT4=
EXTT5=
EXTT6=
EXTT7=
EXTT8=
PLAYORDER=
